<mxfile host="app.diagrams.net" modified="2024-05-25T07:15:12.961Z" agent="Mozilla/5.0 (Windows NT 10.0; Win64; x64; rv:126.0) Gecko/20100101 Firefox/126.0" etag="Z4aM9RITwq0EsIAZQgGL" version="24.4.8" type="device">
  <diagram name="Page-1" id="UkZakgkxVfaRzY_e0Qgx">
    <mxGraphModel dx="3267" dy="2503" grid="1" gridSize="10" guides="1" tooltips="1" connect="1" arrows="1" fold="1" page="1" pageScale="1" pageWidth="827" pageHeight="1169" math="0" shadow="0">
      <root>
        <mxCell id="0" />
        <mxCell id="1" parent="0" />
        <mxCell id="wx2IsFiNLdJEC1_0_Fzh-17" style="edgeStyle=orthogonalEdgeStyle;curved=1;rounded=0;orthogonalLoop=1;jettySize=auto;html=1;exitX=0;exitY=0.5;exitDx=0;exitDy=0;fontSize=16;entryX=0.283;entryY=0;entryDx=0;entryDy=0;entryPerimeter=0;" parent="1" source="wx2IsFiNLdJEC1_0_Fzh-1" target="wx2IsFiNLdJEC1_0_Fzh-3" edge="1">
          <mxGeometry relative="1" as="geometry">
            <Array as="points">
              <mxPoint x="130" y="100" />
              <mxPoint x="130" y="310" />
            </Array>
          </mxGeometry>
        </mxCell>
        <mxCell id="_fKOTV1flWUuNdezQBx0-19" value="sensor value" style="edgeLabel;html=1;align=center;verticalAlign=middle;resizable=0;points=[];fontSize=16;" parent="wx2IsFiNLdJEC1_0_Fzh-17" vertex="1" connectable="0">
          <mxGeometry x="-0.0381" relative="1" as="geometry">
            <mxPoint y="77" as="offset" />
          </mxGeometry>
        </mxCell>
        <mxCell id="wx2IsFiNLdJEC1_0_Fzh-1" value="CAN Controller" style="ellipse;whiteSpace=wrap;html=1;aspect=fixed;strokeWidth=2;fontSize=16;" parent="1" vertex="1">
          <mxGeometry x="210" y="50" width="100" height="100" as="geometry" />
        </mxCell>
        <mxCell id="_fKOTV1flWUuNdezQBx0-33" style="edgeStyle=orthogonalEdgeStyle;rounded=0;orthogonalLoop=1;jettySize=auto;html=1;entryX=0.5;entryY=0;entryDx=0;entryDy=0;fontSize=16;exitX=1;exitY=0.5;exitDx=0;exitDy=0;curved=1;" parent="1" source="wx2IsFiNLdJEC1_0_Fzh-1" target="wx2IsFiNLdJEC1_0_Fzh-4" edge="1">
          <mxGeometry relative="1" as="geometry">
            <mxPoint x="435" y="150" as="sourcePoint" />
          </mxGeometry>
        </mxCell>
        <mxCell id="_fKOTV1flWUuNdezQBx0-34" value="GPS value" style="edgeLabel;html=1;align=center;verticalAlign=middle;resizable=0;points=[];fontSize=16;" parent="_fKOTV1flWUuNdezQBx0-33" vertex="1" connectable="0">
          <mxGeometry x="-0.2099" relative="1" as="geometry">
            <mxPoint x="-16" y="50" as="offset" />
          </mxGeometry>
        </mxCell>
        <mxCell id="wx2IsFiNLdJEC1_0_Fzh-9" style="edgeStyle=orthogonalEdgeStyle;curved=1;rounded=0;orthogonalLoop=1;jettySize=auto;html=1;exitX=0.657;exitY=1.001;exitDx=0;exitDy=0;entryX=0.38;entryY=0.011;entryDx=0;entryDy=0;entryPerimeter=0;exitPerimeter=0;fontSize=16;" parent="1" source="wx2IsFiNLdJEC1_0_Fzh-3" target="wx2IsFiNLdJEC1_0_Fzh-6" edge="1">
          <mxGeometry relative="1" as="geometry" />
        </mxCell>
        <mxCell id="AqF6wtJBWKrwgXie7LTJ-1" value="&lt;div style=&quot;font-size: 16px;&quot;&gt;sensor value &lt;br style=&quot;font-size: 16px;&quot;&gt;&lt;/div&gt;&lt;font style=&quot;font-size: 16px;&quot;&gt;and config&lt;/font&gt;" style="edgeLabel;html=1;align=center;verticalAlign=middle;resizable=0;points=[];" vertex="1" connectable="0" parent="wx2IsFiNLdJEC1_0_Fzh-9">
          <mxGeometry x="-0.3092" y="8" relative="1" as="geometry">
            <mxPoint x="27" as="offset" />
          </mxGeometry>
        </mxCell>
        <mxCell id="_fKOTV1flWUuNdezQBx0-21" style="edgeStyle=orthogonalEdgeStyle;rounded=0;orthogonalLoop=1;jettySize=auto;html=1;exitX=0.664;exitY=-0.011;exitDx=0;exitDy=0;entryX=0.5;entryY=1;entryDx=0;entryDy=0;exitPerimeter=0;curved=1;fontSize=16;" parent="1" source="wx2IsFiNLdJEC1_0_Fzh-3" target="wx2IsFiNLdJEC1_0_Fzh-1" edge="1">
          <mxGeometry relative="1" as="geometry">
            <Array as="points">
              <mxPoint x="176" y="290" />
              <mxPoint x="260" y="290" />
            </Array>
          </mxGeometry>
        </mxCell>
        <mxCell id="_fKOTV1flWUuNdezQBx0-22" value="sensor config" style="edgeLabel;html=1;align=center;verticalAlign=middle;resizable=0;points=[];fontSize=16;" parent="_fKOTV1flWUuNdezQBx0-21" vertex="1" connectable="0">
          <mxGeometry x="0.0238" relative="1" as="geometry">
            <mxPoint x="-20" y="1" as="offset" />
          </mxGeometry>
        </mxCell>
        <mxCell id="wx2IsFiNLdJEC1_0_Fzh-3" value="Sensor Buffer" style="rounded=0;whiteSpace=wrap;html=1;strokeWidth=2;fontSize=16;" parent="1" vertex="1">
          <mxGeometry x="96" y="310" width="120" height="60" as="geometry" />
        </mxCell>
        <mxCell id="wx2IsFiNLdJEC1_0_Fzh-4" value="GPS Buffer" style="rounded=0;whiteSpace=wrap;html=1;strokeWidth=2;fontSize=16;" parent="1" vertex="1">
          <mxGeometry x="375" y="320" width="120" height="60" as="geometry" />
        </mxCell>
        <mxCell id="_fKOTV1flWUuNdezQBx0-59" style="edgeStyle=orthogonalEdgeStyle;rounded=0;orthogonalLoop=1;jettySize=auto;html=1;exitX=0.067;exitY=0.268;exitDx=0;exitDy=0;curved=1;entryX=1;entryY=0.5;entryDx=0;entryDy=0;fontSize=16;exitPerimeter=0;" parent="1" source="wx2IsFiNLdJEC1_0_Fzh-6" target="_fKOTV1flWUuNdezQBx0-47" edge="1">
          <mxGeometry relative="1" as="geometry">
            <mxPoint x="320" y="530" as="targetPoint" />
            <Array as="points">
              <mxPoint x="217" y="570" />
              <mxPoint x="60" y="570" />
              <mxPoint x="60" y="470" />
            </Array>
          </mxGeometry>
        </mxCell>
        <mxCell id="_fKOTV1flWUuNdezQBx0-60" value="recording status" style="edgeLabel;html=1;align=center;verticalAlign=middle;resizable=0;points=[];fontSize=16;" parent="_fKOTV1flWUuNdezQBx0-59" vertex="1" connectable="0">
          <mxGeometry x="-0.3733" y="-5" relative="1" as="geometry">
            <mxPoint x="-58" y="-35" as="offset" />
          </mxGeometry>
        </mxCell>
        <mxCell id="_fKOTV1flWUuNdezQBx0-73" style="edgeStyle=orthogonalEdgeStyle;rounded=0;orthogonalLoop=1;jettySize=auto;html=1;exitX=0.479;exitY=1.013;exitDx=0;exitDy=0;dashed=1;exitPerimeter=0;" parent="1" source="wx2IsFiNLdJEC1_0_Fzh-6" edge="1">
          <mxGeometry relative="1" as="geometry">
            <Array as="points" />
            <mxPoint x="252" y="685" as="sourcePoint" />
            <mxPoint x="257" y="810" as="targetPoint" />
          </mxGeometry>
        </mxCell>
        <mxCell id="wx2IsFiNLdJEC1_0_Fzh-6" value="Data Logger" style="ellipse;whiteSpace=wrap;html=1;aspect=fixed;strokeWidth=2;fontSize=16;" parent="1" vertex="1">
          <mxGeometry x="210" y="585" width="100" height="100" as="geometry" />
        </mxCell>
        <mxCell id="wx2IsFiNLdJEC1_0_Fzh-12" value="" style="endArrow=classic;html=1;rounded=0;curved=1;fontSize=16;" parent="1" target="wx2IsFiNLdJEC1_0_Fzh-6" edge="1">
          <mxGeometry width="50" height="50" relative="1" as="geometry">
            <mxPoint x="445" y="380" as="sourcePoint" />
            <mxPoint x="270" y="585" as="targetPoint" />
            <Array as="points">
              <mxPoint x="410" y="530" />
            </Array>
          </mxGeometry>
        </mxCell>
        <mxCell id="_fKOTV1flWUuNdezQBx0-37" value="&lt;div style=&quot;font-size: 16px;&quot;&gt;GPS value &lt;br style=&quot;font-size: 16px;&quot;&gt;&lt;/div&gt;&lt;div style=&quot;font-size: 16px;&quot;&gt;and config&lt;br style=&quot;font-size: 16px;&quot;&gt;&lt;/div&gt;" style="edgeLabel;html=1;align=center;verticalAlign=middle;resizable=0;points=[];fontSize=16;" parent="wx2IsFiNLdJEC1_0_Fzh-12" vertex="1" connectable="0">
          <mxGeometry x="-0.3199" y="-1" relative="1" as="geometry">
            <mxPoint x="-2" y="-5" as="offset" />
          </mxGeometry>
        </mxCell>
        <mxCell id="_fKOTV1flWUuNdezQBx0-9" style="edgeStyle=orthogonalEdgeStyle;rounded=0;orthogonalLoop=1;jettySize=auto;html=1;exitX=0.5;exitY=1;exitDx=0;exitDy=0;entryX=0.5;entryY=0;entryDx=0;entryDy=0;fontSize=16;dashed=1;" parent="1" source="_fKOTV1flWUuNdezQBx0-3" target="wx2IsFiNLdJEC1_0_Fzh-1" edge="1">
          <mxGeometry relative="1" as="geometry" />
        </mxCell>
        <mxCell id="_fKOTV1flWUuNdezQBx0-3" value="CAN Bus" style="text;html=1;strokeColor=none;fillColor=none;align=center;verticalAlign=middle;whiteSpace=wrap;rounded=0;fontSize=16;" parent="1" vertex="1">
          <mxGeometry x="216" y="-31" width="90" height="30" as="geometry" />
        </mxCell>
        <mxCell id="_fKOTV1flWUuNdezQBx0-8" value="To SD Card" style="text;html=1;strokeColor=none;fillColor=none;align=center;verticalAlign=middle;whiteSpace=wrap;rounded=0;fontSize=16;" parent="1" vertex="1">
          <mxGeometry x="215" y="810" width="90" height="30" as="geometry" />
        </mxCell>
        <mxCell id="_fKOTV1flWUuNdezQBx0-52" style="edgeStyle=orthogonalEdgeStyle;rounded=0;orthogonalLoop=1;jettySize=auto;html=1;exitX=0.5;exitY=1;exitDx=0;exitDy=0;entryX=0.5;entryY=0;entryDx=0;entryDy=0;fontSize=16;" parent="1" source="_fKOTV1flWUuNdezQBx0-44" target="_fKOTV1flWUuNdezQBx0-47" edge="1">
          <mxGeometry relative="1" as="geometry" />
        </mxCell>
        <mxCell id="_fKOTV1flWUuNdezQBx0-53" value="config read status" style="edgeLabel;html=1;align=center;verticalAlign=middle;resizable=0;points=[];fontSize=16;" parent="_fKOTV1flWUuNdezQBx0-52" vertex="1" connectable="0">
          <mxGeometry x="0.0249" y="3" relative="1" as="geometry">
            <mxPoint y="-1" as="offset" />
          </mxGeometry>
        </mxCell>
        <mxCell id="_fKOTV1flWUuNdezQBx0-61" style="edgeStyle=orthogonalEdgeStyle;rounded=0;orthogonalLoop=1;jettySize=auto;html=1;exitX=1;exitY=0.5;exitDx=0;exitDy=0;entryX=0;entryY=0.5;entryDx=0;entryDy=0;curved=1;fontSize=16;" parent="1" source="_fKOTV1flWUuNdezQBx0-44" target="wx2IsFiNLdJEC1_0_Fzh-3" edge="1">
          <mxGeometry relative="1" as="geometry" />
        </mxCell>
        <mxCell id="_fKOTV1flWUuNdezQBx0-63" value="sensors config" style="edgeLabel;html=1;align=center;verticalAlign=middle;resizable=0;points=[];fontSize=16;" parent="_fKOTV1flWUuNdezQBx0-61" vertex="1" connectable="0">
          <mxGeometry x="0.1615" y="18" relative="1" as="geometry">
            <mxPoint x="-23" y="-22" as="offset" />
          </mxGeometry>
        </mxCell>
        <mxCell id="_fKOTV1flWUuNdezQBx0-62" style="edgeStyle=orthogonalEdgeStyle;rounded=0;orthogonalLoop=1;jettySize=auto;html=1;exitX=1;exitY=0.5;exitDx=0;exitDy=0;entryX=0;entryY=0.5;entryDx=0;entryDy=0;curved=1;fontSize=16;" parent="1" source="_fKOTV1flWUuNdezQBx0-44" target="wx2IsFiNLdJEC1_0_Fzh-4" edge="1">
          <mxGeometry relative="1" as="geometry">
            <Array as="points">
              <mxPoint x="-90" y="170" />
              <mxPoint x="300" y="170" />
              <mxPoint x="300" y="350" />
            </Array>
          </mxGeometry>
        </mxCell>
        <mxCell id="_fKOTV1flWUuNdezQBx0-64" value="GPS config" style="edgeLabel;html=1;align=center;verticalAlign=middle;resizable=0;points=[];fontSize=16;" parent="_fKOTV1flWUuNdezQBx0-62" vertex="1" connectable="0">
          <mxGeometry x="0.4442" y="-8" relative="1" as="geometry">
            <mxPoint x="-262" y="-53" as="offset" />
          </mxGeometry>
        </mxCell>
        <mxCell id="_fKOTV1flWUuNdezQBx0-44" value="Config Read" style="ellipse;whiteSpace=wrap;html=1;aspect=fixed;strokeWidth=2;fontSize=16;" parent="1" vertex="1">
          <mxGeometry x="-190" y="130" width="100" height="100" as="geometry" />
        </mxCell>
        <mxCell id="_fKOTV1flWUuNdezQBx0-48" style="edgeStyle=orthogonalEdgeStyle;rounded=0;orthogonalLoop=1;jettySize=auto;html=1;exitX=1;exitY=0.5;exitDx=0;exitDy=0;entryX=0;entryY=0.5;entryDx=0;entryDy=0;curved=1;fontSize=16;" parent="1" source="_fKOTV1flWUuNdezQBx0-46" target="wx2IsFiNLdJEC1_0_Fzh-6" edge="1">
          <mxGeometry relative="1" as="geometry" />
        </mxCell>
        <mxCell id="_fKOTV1flWUuNdezQBx0-49" value="start/stop recording" style="edgeLabel;html=1;align=center;verticalAlign=middle;resizable=0;points=[];fontSize=16;" parent="_fKOTV1flWUuNdezQBx0-48" vertex="1" connectable="0">
          <mxGeometry x="0.0909" y="2" relative="1" as="geometry">
            <mxPoint x="-18" as="offset" />
          </mxGeometry>
        </mxCell>
        <mxCell id="_fKOTV1flWUuNdezQBx0-46" value="Button Manager" style="ellipse;whiteSpace=wrap;html=1;aspect=fixed;strokeWidth=2;fontSize=16;" parent="1" vertex="1">
          <mxGeometry x="-190" y="585" width="100" height="100" as="geometry" />
        </mxCell>
        <mxCell id="_fKOTV1flWUuNdezQBx0-47" value="Led Controller" style="ellipse;whiteSpace=wrap;html=1;aspect=fixed;strokeWidth=2;fontSize=16;" parent="1" vertex="1">
          <mxGeometry x="-190" y="420" width="100" height="100" as="geometry" />
        </mxCell>
        <mxCell id="_fKOTV1flWUuNdezQBx0-66" style="edgeStyle=orthogonalEdgeStyle;rounded=0;orthogonalLoop=1;jettySize=auto;html=1;exitX=0.534;exitY=0.99;exitDx=0;exitDy=0;entryX=0.5;entryY=0;entryDx=0;entryDy=0;dashed=1;fontSize=16;exitPerimeter=0;curved=1;" parent="1" source="_fKOTV1flWUuNdezQBx0-65" edge="1">
          <mxGeometry relative="1" as="geometry">
            <mxPoint x="-139" y="-1" as="sourcePoint" />
            <mxPoint x="-138" y="130" as="targetPoint" />
            <Array as="points">
              <mxPoint x="-162" y="80" />
              <mxPoint x="-138" y="80" />
            </Array>
          </mxGeometry>
        </mxCell>
        <mxCell id="_fKOTV1flWUuNdezQBx0-65" value="SD Card" style="text;html=1;strokeColor=none;fillColor=none;align=center;verticalAlign=middle;whiteSpace=wrap;rounded=0;fontSize=16;" parent="1" vertex="1">
          <mxGeometry x="-210" y="-31" width="90" height="30" as="geometry" />
        </mxCell>
        <mxCell id="_fKOTV1flWUuNdezQBx0-69" style="edgeStyle=orthogonalEdgeStyle;rounded=0;orthogonalLoop=1;jettySize=auto;html=1;exitX=0.5;exitY=0;exitDx=0;exitDy=0;entryX=0.5;entryY=1;entryDx=0;entryDy=0;dashed=1;fontSize=16;" parent="1" source="_fKOTV1flWUuNdezQBx0-67" target="_fKOTV1flWUuNdezQBx0-46" edge="1">
          <mxGeometry relative="1" as="geometry" />
        </mxCell>
        <mxCell id="_fKOTV1flWUuNdezQBx0-67" value="Button Input" style="text;html=1;strokeColor=none;fillColor=none;align=center;verticalAlign=middle;whiteSpace=wrap;rounded=0;fontSize=16;" parent="1" vertex="1">
          <mxGeometry x="-196" y="800" width="110" height="30" as="geometry" />
        </mxCell>
        <mxCell id="AqF6wtJBWKrwgXie7LTJ-3" value="UART to Transmitter device" style="text;html=1;strokeColor=none;fillColor=none;align=center;verticalAlign=middle;whiteSpace=wrap;rounded=0;fontSize=16;" vertex="1" parent="1">
          <mxGeometry x="-70" y="-31" width="140" height="30" as="geometry" />
        </mxCell>
        <mxCell id="AqF6wtJBWKrwgXie7LTJ-4" style="edgeStyle=orthogonalEdgeStyle;rounded=0;orthogonalLoop=1;jettySize=auto;html=1;exitX=0.853;exitY=0.165;exitDx=0;exitDy=0;entryX=0.5;entryY=1;entryDx=0;entryDy=0;dashed=1;fontSize=16;exitPerimeter=0;curved=1;" edge="1" parent="1" source="_fKOTV1flWUuNdezQBx0-44" target="AqF6wtJBWKrwgXie7LTJ-3">
          <mxGeometry relative="1" as="geometry">
            <mxPoint x="-96" y="121" as="sourcePoint" />
            <mxPoint x="-120" y="-10" as="targetPoint" />
            <Array as="points">
              <mxPoint x="-105" y="135" />
              <mxPoint y="135" />
            </Array>
          </mxGeometry>
        </mxCell>
        <mxCell id="AqF6wtJBWKrwgXie7LTJ-5" style="edgeStyle=orthogonalEdgeStyle;rounded=0;orthogonalLoop=1;jettySize=auto;html=1;exitX=1;exitY=0.5;exitDx=0;exitDy=0;curved=1;fontSize=16;entryX=0.596;entryY=0;entryDx=0;entryDy=0;entryPerimeter=0;" edge="1" parent="1" target="wx2IsFiNLdJEC1_0_Fzh-6">
          <mxGeometry relative="1" as="geometry">
            <mxPoint x="300" y="130" as="sourcePoint" />
            <mxPoint x="270" y="580" as="targetPoint" />
            <Array as="points">
              <mxPoint x="330" y="130" />
              <mxPoint x="330" y="500" />
              <mxPoint x="270" y="500" />
            </Array>
          </mxGeometry>
        </mxCell>
        <mxCell id="AqF6wtJBWKrwgXie7LTJ-6" value="start/stop recording" style="edgeLabel;html=1;align=center;verticalAlign=middle;resizable=0;points=[];fontSize=16;" vertex="1" connectable="0" parent="AqF6wtJBWKrwgXie7LTJ-5">
          <mxGeometry x="0.0909" y="2" relative="1" as="geometry">
            <mxPoint x="-12" y="17" as="offset" />
          </mxGeometry>
        </mxCell>
      </root>
    </mxGraphModel>
  </diagram>
</mxfile>
